<?xml version="1.0" standalone="no"?>
<!DOCTYPE svg PUBLIC "-//W3C//DTD SVG 20010904//EN"
 "http://www.w3.org/TR/2001/REC-SVG-20010904/DTD/svg10.dtd">
<svg version="1.0" xmlns="http://www.w3.org/2000/svg"
 width="512.000000pt" height="512.000000pt" viewBox="0 0 512.000000 512.000000"
 preserveAspectRatio="xMidYMid meet">

<g transform="translate(0.000000,512.000000) scale(0.100000,-0.100000)"
fill="#000000" stroke="none">
<path d="M3528 4242 c-136 -26 -249 -49 -251 -52 -3 -3 108 -83 246 -178 l251
-174 115 22 c64 11 139 25 167 31 l51 10 -18 96 c-25 130 -34 153 -75 202 -87
102 -151 107 -486 43z"/>
<path d="M2696 4090 c-142 -27 -260 -51 -262 -53 -7 -6 479 -340 501 -344 19
-4 563 92 572 101 2 2 -107 81 -243 175 -195 134 -255 171 -279 170 -16 0
-146 -23 -289 -49z"/>
<path d="M1880 3940 c-140 -26 -264 -49 -275 -51 -14 -3 40 -46 195 -153 118
-82 233 -162 255 -177 l40 -28 283 52 c156 29 283 56 283 61 1 15 -485 345
-506 345 -11 -1 -135 -23 -275 -49z"/>
<path d="M1230 3821 c-133 -27 -193 -66 -241 -160 l-23 -45 14 -270 c9 -175
16 -635 19 -1301 l6 -1030 22 -40 c25 -47 74 -95 123 -121 34 -18 89 -19 1425
-19 l1390 0 53 30 c56 30 100 83 120 144 9 25 12 342 12 1197 l0 1164 -170 0
-170 0 -224 -220 -223 -220 -124 0 -124 0 220 220 220 220 -300 0 -300 0 -220
-220 -220 -220 -122 0 c-68 0 -123 4 -123 8 0 5 96 104 214 220 l215 212 -297
0 -297 0 -220 -220 -220 -220 -130 0 -130 0 220 220 220 220 -220 1 c-121 0
-242 4 -270 7 -52 7 -21 14 394 90 l93 17 -250 172 c-137 95 -256 175 -263
177 -8 2 -52 -4 -99 -13z m-50 -366 c15 -18 5 -64 -15 -72 -45 -17 -87 26 -65
67 13 24 61 27 80 5z m-2 -177 c28 -28 7 -78 -33 -78 -27 0 -45 18 -45 45 0
27 18 45 45 45 12 0 26 -5 33 -12z m2792 -792 l0 -55 -47 -6 c-554 -75 -1198
-331 -1728 -687 -110 -74 -264 -193 -325 -250 -13 -13 -42 -38 -63 -55 -21
-18 -36 -33 -32 -33 3 0 0 -7 -9 -15 -8 -8 -17 -15 -20 -15 -3 0 -6 263 -6
585 l0 585 1115 0 1115 0 0 -54z m-10 -1440 c0 -2 -8 -10 -17 -17 -16 -13 -17
-12 -4 4 13 16 21 21 21 13z"/>
</g>
</svg>
